# xmcd
#
# Track frame offsets: 
#        150
#        17937
#        28672
#        44535
#        47492
#        66238
#        79781
#        90245
#        94199
#        111338
#        128212
#        145030
#
# Disc length: 2135 seconds
#
# Revision: 0
# Processed by: cddbd v1.4PL0 Copyright (c) Steve Scherf et al.
# Submitted via: ExactAudioCopy v0.95a3
#
DISCID=9c08550c
DTITLE=Stanis³aw Soyka - Soyka No17
DYEAR=1900
DGENRE=
TTITLE0=Nie ma drugiej takiej
TTITLE1=Allegro ma non troppo
TTITLE2=Koniugacje
TTITLE3=Ulica Paryska w Warszawie
TTITLE4=In your tear
TTITLE5=Tango Memento Vitae
TTITLE6=Moja rzeczywistosc
TTITLE7=Jesienny lisc
TTITLE8=Wychowanie
TTITLE9=Uciekaj moje serce
TTITLE10=I jeszcze raz
TTITLE11=A ty serce swiec
EXTD=
EXTT0=
EXTT1=
EXTT2=
EXTT3=
EXTT4=
EXTT5=
EXTT6=
EXTT7=
EXTT8=
EXTT9=
EXTT10=
EXTT11=
PLAYORDER=
